BBC Proms 2012 - 18. Beethoven's 9th Symphony

Daniel Barenboim's Beethoven cycle reaches its climax with a youthful take on the traditional annual Proms performance of the Ninth, perhaps the richest, most provocative statement in Western art music.

An impressive team of soloists joins the National Youth Choir of Great Britain and the West-Eastern Divan Orchestra to project the finale's inclusive vision of hope, reconciliation and hard-won triumph. What better to mark today's opening of the London 2012 Olympics than Beethoven's ultimate hymn to universal brotherhood?

Beethoven
Symphony No. 9 in D minor, 'Choral' (77 mins)

Anna Samuil soprano
Waltraud Meier mezzo-soprano
RenΓÇÜ Pape bass
National Youth Choir of Great Britain
West-Eastern Divan Orchestra
Daniel Barenboim conductor


Video
ID                                       : 1
Format                                   : AVC
Format/Info                              : Advanced Video Codec
Format profile                           : High@L4.1
Format settings, CABAC                   : Yes
Format settings, ReFrames                : 6 frames
Codec ID                                 : avc1
Codec ID/Info                            : Advanced Video Coding
Duration                                 : 1h 25mn
Bit rate mode                            : Variable
Bit rate                                 : 2 591 Kbps
Maximum bit rate                         : 3 500 Kbps
Width                                    : 1 280 pixels
Height                                   : 720 pixels
Display aspect ratio                     : 16:9
Frame rate mode                          : Constant
Frame rate                               : 25.000 fps
Standard                                 : PAL
Color space                              : YUV
Chroma subsampling                       : 4:2:0
Bit depth                                : 8 bits
Scan type                                : Progressive
Bits/(Pixel*Frame)                       : 0.112
Stream size                              : 1.54 GiB (96%)

Audio
ID                                       : 2
Format                                   : AAC
Format/Info                              : Advanced Audio Codec
Format profile                           : HE-AAC / LC
Codec ID                                 : 40
Duration                                 : 1h 25mn
Bit rate mode                            : Constant
Bit rate                                 : 96.0 Kbps
Channel(s)                               : 2 channels
Channel positions                        : Front: L R
Sampling rate                            : 48.0 KHz / 24.0 KHz
Compression mode                         : Lossy
Stream size                              : 57.8 MiB (4%)
